<?xml version="1.0" encoding="utf-8" ?><svg xmlns="http://www.w3.org/2000/svg" xmlns:xlink="http://www.w3.org/1999/xlink" width="30" height="30"><path fill="#C9A86A" transform="matrix(1 0 0 1 2 9.75)" d="M26.9214 5.25L26.6946 4.8531Q25.1123 2.0841 21.0956 0.5643Q17.49 -0.8 13 -0.8Q8.51 -0.8 4.9044 0.5643Q0.8877 2.0841 -0.6946 4.8531L-0.9214 5.25L-0.6946 5.6469Q0.8877 8.4159 4.9044 9.9357Q8.51 11.3 13 11.3Q17.49 11.3 21.0956 9.9357Q25.1123 8.4159 26.6946 5.6469L26.9214 5.25ZM25.0569 5.25Q23.6984 3.2598 20.5294 2.0607Q17.1975 0.8 13 0.8Q8.8025 0.8 5.4706 2.0607Q2.3016 3.2598 0.9431 5.25Q2.3016 7.2402 5.4706 8.4393Q8.8025 9.7 13 9.7Q17.1975 9.7 20.5294 8.4393Q23.6984 7.2402 25.0569 5.25Z" fill-rule="evenodd"/><circle fill="#C9A86A" transform="matrix(1 0 0 1 10.8 10.8)" cx="4.2" cy="4.2" r="4.2"/><circle fill="#14110D" transform="matrix(1 0 0 1 13.4 13.4)" cx="1.6" cy="1.6" r="1.6"/></svg>